<?xml version="1.0" encoding="UTF-8" standalone="no"?>
<!DOCTYPE svg PUBLIC "-//W3C//DTD SVG 1.1//EN" "http://www.w3.org/Graphics/SVG/1.1/DTD/svg11.dtd">
<svg version="1.1" xmlns:xl="http://www.w3.org/1999/xlink" xmlns="http://www.w3.org/2000/svg" xmlns:dc="http://purl.org/dc/elements/1.1/" viewBox="-43 -172 441 441" width="441" height="441">
  <defs/>
  <metadata> Produced by OmniGraffle 7.18.5\n2021-07-11 20:17:46 +0000</metadata>
  <g id="Canvas_1" stroke="none" stroke-opacity="1" fill="none" stroke-dasharray="none" fill-opacity="1">
    <title>Canvas 1</title>
    <g id="Canvas_1_Layer_1">
      <title>Layer 1</title>
      <g id="Line_5">
        <line x1="178.09" y1="114.94254" x2="178.6524" y2="-125.77853" stroke="black" stroke-linecap="round" stroke-linejoin="round" stroke-dasharray="34.0,34.0" stroke-width="17"/>
      </g>
      <g id="Group_2">
        <g id="Group_3">
          <g id="Graphic_4">
            <path d="M 316.6913 60.581726 L 295.8723 60.580726 L 295.8723 39.029726 C 295.8723 34.095726 292.2623 29.903726 287.3823 29.173726 C 286.5303 29.045726 266.2483 26.099726 241.8253 30.543726 C 214.59829 35.497726 192.88429 47.714726 178.15729 66.183726 C 163.42929 47.714726 141.71529 35.497726 114.48929 30.543726 C 90.06529 26.100726 69.78329 29.045726 68.93229 29.173726 C 64.05229 29.904726 60.44229 34.096726 60.44229 39.029726 L 60.44229 60.580726 L 39.623287 60.580726 C 34.120287 60.580726 29.657287 65.043726 29.657287 70.54773 L 29.657287 258.35273 C 29.657287 261.57973 31.219287 264.60673 33.850287 266.47673 C 36.481287 268.34673 39.854287 268.82673 42.901287 267.76473 C 43.649287 267.50573 118.33229 242.01773 174.02129 267.41973 C 176.64929 268.61873 179.66629 268.61873 182.29429 267.41973 C 237.8273 242.08973 312.6703 267.50773 313.4143 267.76473 C 314.4823 268.13673 315.5883 268.31973 316.6903 268.31973 C 318.7333 268.31973 320.7553 267.69173 322.4653 266.47773 C 325.0963 264.60773 326.6583 261.58073 326.6583 258.35373 L 326.6583 70.54873 C 326.6573 65.044726 322.1953 60.581726 316.6913 60.581726 Z M 49.59029 245.01773 L 49.59029 80.51373 L 60.44229 80.51373 L 60.44229 213.23973 C 60.44229 216.13573 61.70929 218.88573 63.90029 220.77873 C 66.09129 222.67173 69.00529 223.52073 71.86929 223.09773 C 72.41929 223.01773 115.71529 217.07373 147.34729 238.77673 C 108.38229 232.11373 69.38429 239.82073 49.59029 245.01773 Z M 168.19129 229.78873 C 154.25929 217.20073 136.11229 208.68873 114.48929 204.75473 C 104.08329 202.86073 94.42929 202.30873 86.70929 202.30873 C 84.41729 202.30873 82.29529 202.35773 80.37629 202.43473 L 80.37629 48.181726 L 80.37529 48.181726 C 99.53029 47.317726 146.12729 49.365726 168.19129 86.76873 Z M 188.12329 86.76973 C 210.10829 49.526726 256.7783 47.385726 275.9393 48.206726 L 275.9393 202.43473 C 267.5563 202.09673 255.3193 202.29873 241.8253 204.75473 C 220.2023 208.68873 202.05529 217.19973 188.12329 229.78873 Z M 208.93429 238.78273 C 240.5703 217.06673 283.8893 223.01673 284.4293 223.09673 C 287.3003 223.52773 290.2123 222.68373 292.4103 220.79173 C 294.6083 218.89773 295.8723 216.14173 295.8723 213.23973 L 295.8723 80.51473 L 306.7243 80.51473 L 306.7243 245.01773 C 286.9243 239.81873 247.9103 232.10873 208.93429 238.78273 Z" fill="black"/>
          </g>
        </g>
      </g>
      <g id="Graphic_21">
        <circle cx="338.0138" cy="-133.3245" r="11.2500179763963" fill="white"/>
      </g>
      <g id="Graphic_14">
        <path d="M 311.9548 -156.16358 L 311.9548 -156.16358 C 308.5642 -154.11403 306.47214 -150.36068 306.45384 -146.29441 L 306.34233 -121.50602 C 306.3238 -117.38239 308.44026 -113.56475 311.888 -111.50291 L 332.26712 -99.31567 C 335.71486 -97.25384 339.96497 -97.26409 343.4034 -99.34255 L 364.07282 -111.83677 C 367.46342 -113.88632 369.5555 -117.63967 369.5738 -121.70594 L 369.6853 -146.49433 C 369.70385 -150.61796 367.58738 -154.4356 364.13964 -156.49744 L 343.7605 -168.68468 C 340.31277 -170.74651 336.06267 -170.73626 332.62424 -168.6578 Z M 343.6264 -139.81376 C 346.72618 -136.603 346.72618 -131.39735 343.6264 -128.18659 C 340.52666 -124.97582 335.50098 -124.97582 332.40123 -128.18659 C 329.30146 -131.39735 329.30146 -136.603 332.40123 -139.81376 C 335.50098 -143.02453 340.52666 -143.02453 343.6264 -139.81376" fill="black"/>
      </g>
      <g id="Graphic_15">
        <path d="M -6.3873965 -156.16358 L -6.3873965 -156.16358 C -9.777999 -154.11403 -11.870076 -150.36068 -11.888368 -146.29441 L -11.999879 -121.50602 C -12.01843 -117.38239 -9.901952 -113.56475 -6.45421 -111.50291 L 13.924909 -99.31567 C 17.372651 -97.25384 21.622757 -97.26409 25.061186 -99.34255 L 45.73061 -111.83677 C 49.12121 -113.88632 51.21329 -117.63967 51.23158 -121.70594 L 51.34309 -146.49433 C 51.36164 -150.61796 49.245165 -154.4356 45.79742 -156.49744 L 25.418304 -168.68468 C 21.970562 -170.74651 17.720456 -170.73626 14.282027 -168.6578 Z M 25.284198 -139.81376 C 28.383964 -136.603 28.383964 -131.39735 25.284198 -128.18659 C 22.184448 -124.97582 17.158764 -124.97582 14.059014 -128.18659 C 10.959249 -131.39735 10.959249 -136.603 14.059014 -139.81376 C 17.158764 -143.02453 22.184448 -143.02453 25.284198 -139.81376" fill="black"/>
      </g>
      <g id="Line_16">
        <path d="M 338.0138 -97.77835 L 338.0138 -2.9850746 L 51.08948 -2.9850746 L 51.08948 -3.7313433 L 19.671606 -3.7313433 L 19.671606 -97.77835" stroke="black" stroke-linecap="round" stroke-linejoin="round" stroke-dasharray="34.0,34.0" stroke-width="17"/>
      </g>
      <g id="Graphic_19">
        <circle cx="178.84271" cy="-134.00018" r="11.2500179763964" fill="white"/>
      </g>
      <g id="Graphic_13">
        <path d="M 152.6126 -156.16358 L 152.6126 -156.16358 C 149.222 -154.11403 147.12992 -150.36068 147.11163 -146.29441 L 147.00012 -121.50602 C 146.98157 -117.38239 149.09805 -113.56475 152.54579 -111.50291 L 172.9249 -99.31567 C 176.37265 -97.25384 180.62276 -97.26409 184.06119 -99.34255 L 204.7306 -111.83677 C 208.1212 -113.88632 210.2133 -117.63967 210.23158 -121.70594 L 210.3431 -146.49433 C 210.36164 -150.61796 208.24516 -154.4356 204.79742 -156.49744 L 184.4183 -168.68468 C 180.97056 -170.74651 176.72046 -170.73626 173.28203 -168.6578 Z M 184.2842 -139.81376 C 187.38396 -136.603 187.38396 -131.39735 184.2842 -128.18659 C 181.18445 -124.97582 176.15876 -124.97582 173.05901 -128.18659 C 169.95925 -131.39735 169.95925 -136.603 173.05901 -139.81376 C 176.15876 -143.02453 181.18445 -143.02453 184.2842 -139.81376" fill="black"/>
      </g>
      <g id="Graphic_22">
        <path d="M -5.711721 -155.4879 L -5.711721 -155.4879 C -9.102323 -153.43836 -11.1944 -149.685 -11.212692 -145.61873 L -11.324203 -120.83035 C -11.342754 -116.70672 -9.226276 -112.88908 -5.778534 -110.82724 L 14.600585 -98.64 C 18.048327 -96.57816 22.298432 -96.58842 25.736862 -98.66687 L 46.406285 -111.1611 C 49.79689 -113.21064 51.888964 -116.96399 51.907256 -121.03027 L 52.01877 -145.81865 C 52.03732 -149.94228 49.92084 -153.75992 46.4731 -155.82176 L 26.09398 -168.009 C 22.646237 -170.07084 18.396132 -170.06058 14.957702 -167.98213 Z M 25.959874 -139.13808 C 29.05964 -135.92733 29.05964 -130.72167 25.959874 -127.51091 C 22.860124 -124.30014 17.83444 -124.30014 14.73469 -127.51091 C 11.634924 -130.72167 11.634924 -135.92733 14.73469 -139.13808 C 17.83444 -142.34886 22.860124 -142.34886 25.959874 -139.13808" fill="black"/>
      </g>
    </g>
  </g>
</svg>
